<svg xmlns="http://www.w3.org/2000/svg" width="192" height="272" viewBox="0 0 192 272" fill="none">
  <defs>
    <linearGradient id="safe-day-housing" x1="11" y1="39" x2="175" y2="247" gradientUnits="userSpaceOnUse">
      <stop stop-color="#69747A"/><stop offset=".46" stop-color="#414C53"/><stop offset="1" stop-color="#2F383E"/>
    </linearGradient>
    <linearGradient id="safe-day-door" x1="24" y1="51" x2="162" y2="234" gradientUnits="userSpaceOnUse">
      <stop stop-color="#849097"/><stop offset=".38" stop-color="#65727A"/><stop offset="1" stop-color="#43515A"/>
    </linearGradient>
    <linearGradient id="safe-day-steel" x1="-23" y1="-28" x2="23" y2="28" gradientUnits="userSpaceOnUse">
      <stop stop-color="#E4E6DD"/><stop offset=".23" stop-color="#8D9A9F"/><stop offset=".48" stop-color="#CCD3D1"/><stop offset=".72" stop-color="#58676F"/><stop offset="1" stop-color="#ABB6B8"/>
    </linearGradient>
    <linearGradient id="safe-day-handle" x1="131" y1="140" x2="150" y2="170" gradientUnits="userSpaceOnUse">
      <stop stop-color="#E4E6DD"/><stop offset=".28" stop-color="#ACB9BC"/><stop offset=".56" stop-color="#58676F"/><stop offset=".82" stop-color="#CBD2D0"/><stop offset="1" stop-color="#667880"/>
    </linearGradient>
  </defs>

  <!-- A solid silhouette covers the framed picture when it swings aside. -->
  <path d="M3 35 184 0 191 7V251L3 269Z" fill="#222B30" stroke="#202629" stroke-width="2" stroke-linejoin="round"/>
  <path d="m184 1 7 6v244l-7-7Z" fill="#273137"/>
  <path d="M3 35 184 1V244L3 269Z" fill="url(#safe-day-housing)" stroke="#242B2F" stroke-width="2.5" stroke-linejoin="round"/>
  <path d="m7 39 173-32" stroke="#B6BFBC" stroke-width="2" stroke-linecap="round" opacity=".7"/>
  <path d="m6 40 1 222" stroke="#89969B" stroke-width="1.6" opacity=".6"/>
  <path d="m8 265 172-24V10" stroke="#17232A" stroke-width="2" opacity=".75"/>
  <path d="M15 49 172 20V234L15 257Z" fill="#263137" stroke="#1B252B" stroke-width="2.5" stroke-linejoin="round"/>
  <path d="M20 53 167 27V230L20 251Z" fill="#99A5A7" stroke="#7C898D" stroke-width="1.2" stroke-linejoin="round"/>
  <path d="M24 57 163 32V227L24 247Z" fill="url(#safe-day-door)" stroke="#202B31" stroke-width="2.3" stroke-linejoin="round"/>
  <path d="m28 60 131-23v186" stroke="#B5C1C2" stroke-width="1.3" opacity=".55"/>
  <path d="m28 63 1 179 127-18" stroke="#35434B" stroke-width="2" opacity=".8"/>

  <!-- Two visible barrel hinges along the inset door. -->
  <path d="m17 84 14-2v29l-14 2Z" fill="#3B4951" stroke="#222C32" stroke-width="1.8" stroke-linejoin="round"/>
  <path d="m20 85 7-1v26l-7 1Z" fill="#91A0A5"/>
  <path d="m19 91 11-1m-11 15 11-1" stroke="#394850" stroke-width="1.3"/>
  <path d="m17 188 14-2v29l-14 2Z" fill="#3B4951" stroke="#222C32" stroke-width="1.8" stroke-linejoin="round"/>
  <path d="m20 189 7-1v26l-7 1Z" fill="#91A0A5"/>
  <path d="m19 195 11-1m-11 15 11-1" stroke="#394850" stroke-width="1.3"/>

  <!-- Recessed combination dial, with engraved ticks and a fixed index. -->
  <ellipse cx="91" cy="134" rx="29" ry="31" fill="#233039" opacity=".65"/>
  <g transform="translate(88 129) skewY(-9) scale(.91 1)">
    <circle r="30" fill="url(#safe-day-steel)" stroke="#202A30" stroke-width="2.3"/>
    <circle r="26.5" fill="#26343E" stroke="#D1D9D4" stroke-width="1"/>
    <path d="M0-24v4M12-20.8l-2 3.5M20.8-12l-3.5 2M24 0h-4M20.8 12l-3.5-2M12 20.8l-2-3.5M0 24v-4M-12 20.8l2-3.5M-20.8 12l3.5-2M-24 0h4M-20.8-12l3.5 2M-12-20.8l2 3.5" stroke="#C9D3D2" stroke-width="1.3" stroke-linecap="round"/>
    <path d="m6.2-23.2-.6 2.3M17-17l-1.7 1.7m7.9 9.1-2.3.6m2.3 11.8-2.3-.6M17 17l-1.7-1.7m-9.1 7.9-.6-2.3m-11.8 2.3.6-2.3M-17 17l1.7-1.7m-7.9-9.1 2.3-.6m-2.3-11.8 2.3.6M-17-17l1.7 1.7m9.1-7.9.6 2.3" stroke="#8F9FA7" stroke-width=".85" stroke-linecap="round"/>
    <circle r="16.5" fill="url(#safe-day-steel)" stroke="#101D25" stroke-width="1.5"/>
    <circle r="11.5" fill="#445662" stroke="#B7C6C8" stroke-width="1"/>
    <path d="M-7.5-5.5Q0-11 7.5-6" stroke="#ABB9BD" stroke-width="1.3" stroke-linecap="round" opacity=".8"/>
    <path d="m-1-15 2 .1" stroke="#F2EAD0" stroke-width="2" stroke-linecap="round"/>
    <circle r="3" fill="#263640" stroke="#758992" stroke-width=".9"/>
  </g>
  <path d="m84 89 4 6 4-7Z" fill="#D9DAD0" stroke="#34424A" stroke-width="1"/>

  <!-- Short chrome lever, raised from the door with an offset shadow. -->
  <path d="m137 141 11-2v31l-11 2Z" fill="#33434C" stroke="#23313A" stroke-width="1.5" stroke-linejoin="round"/>
  <path d="m140 145 7-1v23l-7 1Z" fill="#73858C"/>
  <path d="m145 149 7 3-1 18-8 1-3-5 2-13Z" fill="#1E2B33" opacity=".65"/>
  <path d="m137 146 6-1 6 6-2 18-7 1 1-16-5-3Z" fill="url(#safe-day-handle)" stroke="#24343D" stroke-width="1.8" stroke-linejoin="round"/>
  <path d="m139 148 3-.5 4 5-1 12" stroke="#EBEDE4" stroke-width="1.4" stroke-linecap="round" opacity=".8"/>

  <!-- Slotted screw heads and restrained brushed-metal marks. -->
  <g fill="#8A989C" stroke="#233139" stroke-width="1.1">
    <ellipse cx="10" cy="46" rx="2.6" ry="3"/><ellipse cx="178" cy="14" rx="2.6" ry="3"/>
    <ellipse cx="10" cy="258" rx="2.6" ry="3"/><ellipse cx="178" cy="235" rx="2.6" ry="3"/>
  </g>
  <path d="m8.6 47.5 2.8-3m165.2-29 2.8-3M8.6 259.5l2.8-3m165.2-20 2.8-3" stroke="#233139" stroke-width="1"/>
  <path d="m43 207 18-2.5m-15 7.5 26-3.5m-28 10.5 12-1.7M117 58l23-4m-15 9 19-3.5" stroke="#ABBCC0" stroke-width="1" stroke-linecap="round" opacity=".22"/>
  <path d="m119 202 22-3m-15 8 13-1.8" stroke="#263C48" stroke-width="1.3" stroke-linecap="round" opacity=".4"/>
</svg>

